<?xml version="1.0" encoding="UTF-8"?>
<svg id="Layer_2" xmlns="http://www.w3.org/2000/svg" version="1.1" viewBox="0 0 562.6 502.8">
  <!-- Generator: Adobe Illustrator 29.0.0, SVG Export Plug-In . SVG Version: 2.1.0 Build 186)  -->
  <defs>
    <style>
      .st0 {
        fill: #4f90cd;
      }
    </style>
  </defs>
  <g id="Yk000M">
    <g>
      <g>
        <path class="st0" d="M52,143.9c2.6,1.9,6.2,1.1,10.1,5.3,10.7,11.4,6.5,51.3,7.2,67.4s4.3,29,3.2,30c-31.3,1.1-26.3,37-9.6,54.2s54,36.1,70.9,63.8c2.3,3.8,7.2,21.1,12.5,13.5,7.2-10.3-21.2-38.1-28.4-44.7-12.6-11.4-48.6-34.6-54.9-47.3-7-14.3-7.4-32.9,13.4-29.6,10,1.6,53.8,39,67.5,47.6,37.8,23.6,78.9,32.1,102.8,74.1,16.8,29.7,10.2,49.6,16.3,79.4,1.5,7.5,13.3,36.8,11.5,40.5l-2.5,2.5h-92.5c-3.9-1.9-11.3-31-14.3-37.6-22.7-50.8-111.6-62.8-129.6-117-7.4-22.1-27.9-104.5-26.4-124.4s12.5-64.7,17.5-76.6c3.5-8.4,12.7-13,20.6-7,2.4,1.8,3.1,5,4.5,6Z"/>
        <path class="st0" d="M501.9,299.6c16.3-17.8,19.2-53.9-12.4-53,2.8-9.6,4.3-21.6,4.8-31.6.9-16.3-4.1-55.7,8-66.6s7.1-2.8,9.3-4.5,2.1-6.4,7.8-7.6c11.1-2.2,15.8,4,18.8,13.5,7.8,24.8,18.2,70.7,13.9,95.4-4.8,27.1-13.9,62.1-21.4,88.9-20.2,72.8-107.3,72.3-132.5,128.7-3,6.6-10.4,35.7-14.3,37.6l-88.5.9c-4.3-.1-7.5-2.4-7-7,1.1-10,10-26.3,12.2-38.2,5.5-28.6-.4-47.6,14.8-76,23.3-43.6,65.5-52.1,104-76.1,13.9-8.7,57.2-46,67.5-47.6,16.1-2.6,18.8,5.7,16.8,20-2.9,20.9-52.9,49.1-68.9,65.8-5.9,6.2-21,26.2-18.4,34.7,3.8,12.2,13.2-13.2,14.7-15.7,14.9-24.1,51.7-41.2,70.5-61.7Z"/>
      </g>
      <g>
        <path class="st0" d="M303,144.5c-.5,4.3,0,2.6,2.4,3.2,16.7,5,27.4,8.5,38.9,22.8,9.3,11.7,22.6,36.7-1.4,38.9-39.1,3.6-83.7-2.9-123.4,0-23.2-2.8-7-31.3,2.4-41.4,9.1-9.8,25.7-18.8,39-20.2.7-4.3-5.6-5.1-8.9-8.1-24-22-12.7-63.8,18.6-72.2,48.5-13,75.8,53.9,32.5,77.2Z"/>
        <path class="st0" d="M171.6,102.2l16,.2c.8,2.1,1.5,3.6.6,5.8s-21.3,25.4-24.7,28.9-8.2,9.6-12.2,8.9l-21.9-47.7c3.4-6.4,12.2,1.1,16.2-1.7C183.5-9.2,325.3-32.7,395.4,56.1c7.9,10,32.7,43.6,15.1,52.3-16.2,8-21.4-16.8-28.3-27.7C330.6-.7,205.4,12.9,171.6,102.2Z"/>
        <path class="st0" d="M392.2,191.5c-3.8.3-18.9,1.3-17.7-5.5,1-5.3,27.3-28.2,30.5-36,2.9-3.1,7.5-3.7,9.7.3l19.6,45.1-3.8,2.5-12.4-2.5c-39.8,107.8-183.9,129.1-252.7,35.5-6.8-9.3-29.1-41-11.6-48.3,15.8-6.7,18.8,12.8,24.6,22.4,53,86,173,77.8,213.8-13.5Z"/>
      </g>
    </g>
  </g>
</svg>