<?xml version="1.0" encoding="UTF-8"?>
<svg id="Layer_2" xmlns="http://www.w3.org/2000/svg" version="1.1" viewBox="0 0 562.6 502.8">
  <!-- Generator: Adobe Illustrator 29.0.0, SVG Export Plug-In . SVG Version: 2.1.0 Build 186)  -->
  <defs>
    <style>
      .st0 {
        fill: #4f90cd;
      }
    </style>
  </defs>
  <g id="pbHZWY.tif">
    <path class="st0" d="M279.5,502.8c-40.2-1.3-81.9-18.1-111.3-45.5-8.7-8.1-15.5-17.5-22.3-27.2-13.4-18.9-26.9-38.8-34.8-60.8-.5-.4-1.5,1.3-1.8,1.6-7.9,11.1-14,25.2-23,35.6s-1.3,1.4-2,1.9l-5.2-125.5,97.9,50.5-19.1,15.6c-5.5.5-11.1-.2-16.6.5s-5.9.7-3.4,5.2c7.1,12.9,27.2,31.1,38.8,40.7,12,9.9,38.2,29.5,54.3,26.7,9.3-1.6,13.9-19.7,15.5-27.5,5.1-24.1,5.8-50.4,6.9-75,1.2-26.3,1.8-52.6,3-78.9s.2-7.5.3-11.2l2.5-39.9c-1.8-.4-3.8-.3-5.7-.8-4.5-1.1-7-4.5-8.5-8.7h-77.9c-3.6,14.3-16.1,30.2-32.6,23.4-25.3-10.4-25.2-64,.8-73.7,15.7-5.8,27.7,9.1,31.5,22.6l78.2.3c.8-1.3,1.2-2.7,2-3.9,1.9-2.9,5.9-5.2,9.5-5.2h7.5v-24.6c-6.3-2.4-12.2-4.8-17.8-8.7-42.1-29.5-30.7-94.7,18.9-108.2,47-12.9,89.5,33.4,72.7,79.2s-21.4,31.5-39.5,37.6l-.4,24.7h6.6c1.6,0,4.4.5,5.9,1.2,3.4,1.6,5,4.7,6.6,7.9h78.3c3.8-16.3,20.1-32.2,36.8-20,14.7,10.7,17.4,36.1,11.3,52.2-9.5,25.1-34.6,27.7-45.9,2.2-.7-1.7-1.6-5.3-2.4-6.5s-.3-.5-.7-.5h-77.4c-1.2,4.1-4.6,8-8.9,8.8s-6.2.2-6.5.6c0,3.8,0,7.6.2,11.4,1.9,50.4,4.6,100.8,8,151.1,1.2,18,1,42,7.3,58.7,5.3,14.1,16.3,13.7,29.2,9.9,19-5.7,32.7-17,47.5-29.7s29.5-26,31.7-35.8.7-4.6-2.7-5.3c-6-1.2-12.8-.2-19-.8-4.5-3.7-9.5-7-14-10.7s-3.2-2.6-3.1-3.1l97.2-52.3v5.6l-2.9,120.2c-3.4-2.4-6.3-4.6-8.8-7.9s-6-9.1-8.7-13.4-7.3-12-10.7-18.1l-.6-.2c-2.4,3.6-5.3,7-7.9,10.5-20.4,28.5-33.7,60.2-59.8,84.8-23.2,21.8-54,32.4-85,37.2l-12.2.9c-2.4,0-4.9,0-7.4,0ZM277.6,27.2c-24.4,1.6-38.1,29.5-25.9,50.5s53.7,20.5,61.4-7.9c6.4-23.2-11.9-44.2-35.5-42.6Z"/>
  </g>
</svg>