<?xml version="1.0" encoding="UTF-8"?>
<svg id="Layer_2" xmlns="http://www.w3.org/2000/svg" version="1.1" viewBox="0 0 562.6 502.8">
  <!-- Generator: Adobe Illustrator 29.0.0, SVG Export Plug-In . SVG Version: 2.1.0 Build 186)  -->
  <defs>
    <style>
      .st0 {
        fill: #4f90cd;
      }
    </style>
  </defs>
  <g id="Layer_1-2">
    <g id="Nlvw10">
      <g>
        <path class="st0" d="M483.3,499.8h-44V44.8c-15.9-2.9-33.5.5-49.5-1-28.9-2.7-28.1-41.2-1-44,24.9-2.5,53.7,1.8,79,0,6-.1,15.5,7.6,15.5,13.5v486.5h0ZM387,8c-12.2,2.5-12.8,23,1,25.5,21.6,3.9,21.3-30.1-1-25.5Z"/>
        <path class="st0" d="M114.3,492.8h122v-41l18,7v34h70.5c3.2,0,3.2,9,0,9H79.3V197.3c0-7.2,9.9-15.6,16.6-17.4,8.7-2.3,37.1-2,46.9-1.1,18.3,1.6,27.9,22.2,14.5,35.6-9.7,9.7-25.4,3.6-37.5,5.5-1.5.2-5.6,2.3-5.6,3.4v269.5h0ZM152,189.1c-13.2-11-28.8,8.6-16.6,19.1,12.3,10.5,28.7-9.1,16.6-19.1Z"/>
        <polygon class="st0" points="306.3 312.8 396.3 375.2 377.1 436.6 306.3 469.8 306.3 312.8"/>
        <path class="st0" d="M297.3,313.8v155c-4.1-.7-8.7-3-12.7-4.8-19.5-8.9-38.6-18.7-58.1-27.4l-19.2-61.3,90-61.4h0Z"/>
        <path class="st0" d="M371.3,317.8l-69.5-45.1-71,47.1c-1.9.8-1.5-2.6-1.5-3.5v-51l1.5-1.5h139l1.5,1.5v52.5h0Z"/>
        <rect class="st0" x="264.3" y="226.8" width="72" height="28"/>
        <polygon class="st0" points="297.3 286.8 297.3 301.3 205.6 364.6 203.3 364.8 200.2 352.3 297.3 286.8"/>
        <path class="st0" d="M306.3,285.8l97.1,66.5c-.9,3.7-1.6,7.6-3,11.2-.4,1,.6,1.8-1.5,1.3l-92.6-63.5v-15.5h0Z"/>
        <path class="st0" d="M284.7,74.2c-17.1,17.9-35.8,34.6-53.3,52.2l42.4,43.4-.4,4.6c-1.1,1.3-2.9,1.7-4.5,1.4-1.5-.2-19.2-17.2-22.1-20-8.7-8.3-16.8-17.3-25.5-25.5l-.9-5.8,62.5-60.7,5.4,5.6c.7,2.9-2.1,3.3-3.5,4.8h-.1Z"/>
        <path class="st0" d="M340.7,87.4c10.2,10.4,26.8,24.5,35.1,35.3,1,1.3,2.5,2.6,2.3,4.4l-44.2,45.7c-3.4,2.4-8.2,0-7.4-4.3,1.2-6.6,35.3-33.5,39.7-42.1l-54.9-56.1,6.5-6.5c8.1,7.4,15.2,15.8,22.9,23.6h0Z"/>
        <path class="st0" d="M172.4,204.7l-1.1-13.9c13.9,17.8,15.7-6.3,30.5-7,14.1-.8,16,15.4,23.2,16.9,9,1.9,11.6-13.9,23.9-14.5,7.7-.3,21.9,11.1,16.4,17.2-5.8,6.4-9.1-8.6-16.1-8-7.3.7-8.7,12.9-19.5,14.4-14.6,2-14.6-7.9-22.4-14.4-8.4-7-10.8,2.8-16,7.1-6.4,5.2-11.5,5.1-18.9,2.4h0v-.2Z"/>
        <polygon class="st0" points="368.3 451.8 368.3 501.8 350.3 501.8 350.3 458.8 368.3 451.8"/>
        <polygon class="st0" points="316.3 172.8 316.3 194.8 285.3 193.8 285.3 172.8 316.3 172.8"/>
        <path class="st0" d="M359.3,23.8h-53.5c-2.5,1.9-1.3,5.3-1.5,8h-9c-.3-2.8-.6-17,3.5-17h60l1.3,1.5-.8,7.5Z"/>
        <path class="st0" d="M297,41c16.4-3.3,19.5,19.4,7.5,22.5-18.2,4.7-21.6-19.7-7.5-22.5Z"/>
        <path class="st0" d="M314.3,165.8h-28c2-14.9,25.9-14.9,28,0Z"/>
        <path class="st0" d="M391,14c-7.7.3-8.8,11.4-2.1,12.7,11.7,2.2,10.2-13.1,2.1-12.7Z"/>
        <path class="st0" d="M148.1,194c-4.7-4.7-15.1,1.9-9.2,8.7s14.4-3.5,9.2-8.7Z"/>
        <path class="st0" d="M391,14c8-.4,9.5,15-2.1,12.7-6.7-1.3-5.5-12.4,2.1-12.7Z"/>
        <path class="st0" d="M148.1,194c5.2,5.2-3.2,15.6-9.2,8.7s4.6-13.4,9.2-8.7Z"/>
      </g>
    </g>
  </g>
</svg>