<?xml version="1.0" encoding="UTF-8"?>
<svg id="Layer_2" xmlns="http://www.w3.org/2000/svg" version="1.1" viewBox="0 0 562.6 502.8">
  <!-- Generator: Adobe Illustrator 29.0.0, SVG Export Plug-In . SVG Version: 2.1.0 Build 186)  -->
  <defs>
    <style>
      .st0 {
        fill: #4f90cd;
      }
    </style>
  </defs>
  <g id="Btt1Ps">
    <g>
      <path class="st0" d="M439.1,110.2h-18.5c-4.3,0-8.8,5.3-9.4,9.6-2.5,17.5,1.8,39.7-.3,57.7-11.1,11.5-21,24.8-24.9,40.6l-113.4-10.9c-48.2,1.1-96,9.3-144,13-2.7.2-7.8,1.1-9.5-.5v-101c0-2.7-5.8-8.5-8.5-8.5h-19.5V38.7l1.5-1.5h345l1.5,1.5v71.5ZM152.8,70.4c-9.2,3.4-10.1,14.7-1,18.6l48.7.2c9.9-2.5,10.3-15.3.8-18.7h-48.6,0ZM293.7,86.9c5.1-5.1,2.2-15.4-5.2-16.6s-39.7-1.1-46.9,0-10.6,16.6-1,18.9c15.1-1.3,33.3,1.9,48,0s3.8-1.1,5.1-2.4h0ZM381.8,72.5c-1.3-1.2-4.4-2.1-6.2-2.3-8.7-1-37.7-1.2-46,0-10.1,1.6-10.2,17.3,0,18.9s40.5,1.2,47.9,0,9.5-11.8,4.3-16.6h0Z"/>
      <path class="st0" d="M553,216.3c23.1,49.1-11.4,108.7-65.5,112.9s-17.4-2.5-23.8,2.2c-21.3,24.5-52.8,47.4-72.7,72.3-6.8,8.5-2.8,10.4-2.9,19-.3,32.1-22.2,63-52.1,74-18.8,6.9-44.2,7.6-61.5-3.5l45.6-45.6-13-24-24-14.1-45.5,44.6c-2.1,2.2-4.6-5.2-5.3-6.7-17.6-44.6,16-99.9,63.4-105.2,47.4-5.3,21.5,1.5,26.8-1.2l76.2-75.8c4.1-5.5,1.2-12.7,1.4-19.6,2.2-55.8,63.1-93.9,113.6-68.5l-45.4,46.6c-.3,1.4,12.2,23.3,13.9,24.8s21.3,12.3,22.6,12.4l44.8-43.9,3.5-.9v.2Z"/>
      <path class="st0" d="M381.1,237.2l-.9,18.6-63.2,63.8c-5.1,4.5-12.7,2.1-19.3,2.7-37.4,3.8-66.7,27.4-82.1,60.9s-.6,9.7-8.3,12.7c-18.9,7.4-44.8,5.5-62.9-3.6s-16.9-11.8-26.3-15.7c-49.5-20.3-68,30.1-110.4,23.4-10.7-1.7-10.6-18.4,2.9-19.9,30.6-3.6,29-11.7,53.1-21.9,20.8-8.7,45.7-8.2,66,1.7,20.3,9.9,12.4,8.6,19.3,11.2-39.2-33.1-68.5-76.6-90.5-122.8l1.2-1.9,202.8-20.2,118.5,11.1h.1Z"/>
      <path class="st0" d="M209.1,436.2l4.6,20c-16.7,8.2-38.8,9.4-56.6,4.5-22.6-6.3-34.7-24.9-60.5-25.5-31.4-.8-45.2,24.5-74.3,27.8-7.8.9-21.5,2.6-22.3-8.2s12.6-10.3,20.5-11.6c26.8-4.4,38.6-27.5,73.1-27.9,31.5-.4,38.1,13.4,62.1,23.9s38.5,6,53.3-2.9h0Z"/>
      <rect class="st0" x="172.1" y="-1.8" width="186" height="20"/>
      <path class="st0" d="M405.1,442.2l2.1-21.8c18.1-6.5,38.8-6.6,56.8.4,16.2,6.3,27.5,19.5,45.6,22.4,7.7,1.2,21.4-1.3,20.5,11.6s-32.6,6.5-41.7,2.7c-14.6-6.1-24.7-17.8-41.1-20.9-15.2-2.8-28.2.2-42.2,5.7h0Z"/>
      <path class="st0" d="M450.1,374.2c-.4-1.5.4-1.7,1-2.5.9-1.2,11.5-12,12.5-12.6s1.5-1.2,2.8-.8c14.7,7,26.8,19.2,43.5,21.6s17.1-1.4,19.8,7.2c7,22.4-34.2,10.4-43.9,5.9s-22.1-16.2-35.6-18.9h0Z"/>
    </g>
  </g>
</svg>