<?xml version="1.0" encoding="UTF-8"?>
<svg id="Layer_2" xmlns="http://www.w3.org/2000/svg" version="1.1" viewBox="0 0 562.6 502.8">
  <!-- Generator: Adobe Illustrator 29.0.0, SVG Export Plug-In . SVG Version: 2.1.0 Build 186)  -->
  <defs>
    <style>
      .st0 {
        fill: #4f90cd;
      }
    </style>
  </defs>
  <g id="cYoF6O">
    <g>
      <path class="st0" d="M298.3,4.5c6.7,6.6,5.9,44.1,1.1,48.8s-8.9,3.2-11.9,1.2-5.9-46.8,4.4-50h6.4Z"/>
      <path class="st0" d="M147.2,90.8c-1.2,1.3-3.3,1.7-5,2.1-4.3,0-33.2-25-34.3-28.5-5.2-17.6,12.1-10.8,20.8-3.8,6.7,5.4,26.5,22.1,18.5,30.2Z"/>
      <path class="st0" d="M436.6,62.3c6.4-5.6,16.6-.6,13.3,10-.7,2.2-19.7,30.7-21.2,31.9-2.8,2.1-4.8,2.6-8.2,1.7l-4.7-3.9c-1.4-2.3-1.3-4.4-.6-6.9s20-31.5,21.4-32.8Z"/>
      <path class="st0" d="M499,206.5c10.8.4,12.8,11.8,3.2,15.7s-42.2,8.1-44.7-1l.7-7c1.1-1.8,2.7-3.2,4.7-3.8,5.6-1.7,30.1-4.2,36-4Z"/>
      <path class="st0" d="M57.7,239.7c-3.9-1.2-4.8-11.4-1.2-13.9s33.2-3.6,37.4-3.2c18.7,1.9,10,17.1,6.2,17.1-8.8,0-36.5,1.8-42.4,0Z"/>
      <g>
        <path class="st0" d="M274.9,498.3c-14.9-3.9-32.2-15.9-38.6-30.3-2-4.4-1.4-16.5-4.3-20.1-2.9-3.5-15.1-2.3-9.1-15.4,24.3-10.1.6-19.5-.8-24.7-2.1-8,8-11.4,8-12.2,0-9-11.7-31.8-17.2-40-34.8-52.4-72-71.8-65.3-146.6,15.6-173.1,289.1-147.7,268.9,33.7-6.5,58.2-55.5,88.7-78.2,138.1-.2.9,8.6,2.8,8,10.2-.8,9.6-16.3,5.1-12.3,21.2l9.7,5.6c3.8,9.2-.7,13.2-9.3,15.2-5.7,15.1,16.9,10.3,9.2,25.2-2.4,4.6-8.9,3.3-12.7,6.4s-7.7,13.7-11.7,18c-8.2,8.8-18.9,11.8-29.7,15.9h-14.8ZM321.2,383.5c15.1-54.5,65-77.6,77.4-135.6,36.2-169.1-252.9-197.8-233.9-7.1,6.5,65.3,74,90.9,80.5,153.7l75.9-11ZM317.3,403l-66.3,8.9-3.4,2.9,1.9,11.5,67.8-8.5v-14.9ZM317.3,434.8l-67.8,8.5c0,4.2-1.6,12.2,4.3,11.8l63.5-7.6v-12.7ZM308.8,466.6c-13.8.9-27.6,2.4-41.3,4.3-3,.4-6.2-2-5.3,3.1,14.6,13.2,36.6,9,46.6-7.4Z"/>
        <path class="st0" d="M343,216.2l16.8,1.3c6.5,3.2,5.2,22,2.3,27.8-13.4,6.4-20.9-2.4-25.3,17.2l10,12.7c1.2,4.7-14.4,19.9-18.7,20.9-6.5,1.4-12.9-10.9-16.1-11.2-18.1,3.8-10.8,9.8-15.4,20.1s-20.8,4.5-28.3,3.8c-1.6-1.1-1.7-2.7-2-4.4-2.9-15.9,6.1-13.5-14.7-21.4-4.1-1-8,8.2-12.2,9.4-7.5,2.1-24.7-14.5-20.8-23,4.4-9.3,14.8-6.3,5.1-25.2-22.8,4-25.2-12.3-17.8-30,5.4-5.4,21.6,4,24.1-14.3,1.1-8.1-14.1-12.2-8.4-20.7,1.2-1.8,15.3-15.3,16.4-15.5,2.3-.3,3.9,1,5.7,2.1,12,6.8,5.9,13.7,25.6,4.2l1.5-15.9c1.6-5,23.4-4.7,27.3-2.4s4,12.9,3.1,18.2l13.8,7.5,13.9-9.8c7.3-.8,19.7,10.9,20.1,18.3-5.8,13.9-14.3,12.3-6.2,30.3ZM278.7,197.8c-38.6,5.6-34,66.1,5.6,65.1,43.8-1.1,39.6-71.6-5.6-65.1Z"/>
      </g>
    </g>
  </g>
</svg>