<?xml version="1.0" encoding="UTF-8"?>
<svg id="Layer_2" xmlns="http://www.w3.org/2000/svg" version="1.1" viewBox="0 0 562.6 502.8">
  <!-- Generator: Adobe Illustrator 29.0.0, SVG Export Plug-In . SVG Version: 2.1.0 Build 186)  -->
  <defs>
    <style>
      .st0 {
        fill: #4f90cd;
      }
    </style>
  </defs>
  <g id="VG893C.tif">
    <g>
      <path class="st0" d="M242.5,102.5h196.7c11,1.2,28-13.5,28-24.1v-17.2c10.9,1.4,26.6-1.9,36.8,0,2.1.4,4,2.3,4.4,4.4l.8,271.6c5.4,8.7,13.8,7.4,18.9-.7V61.2c-3.7-11.6-10.9-18.3-23.2-19.5h-87.9c1.5-20.7-10-38-30.5-42.4h-89.5l-11.1,4.1c-14.2,7.4-20.3,22.6-19.3,38.2h-88c-12.9,1.4-22,10-23.1,23.1-3.1,35.8,2.4,75.8,0,112.1-14,28.5-14.5,61.6-1.1,90.4l-22,22.2c-6.2-7.5-11.4-5.8-18.2-.5-20.1,22.5-45.9,42.7-65.4,65.4-42.2,49,18.7,106.2,64,67.9,14.8-12.5,27.6-29.8,42.7-42.3v102.8c0,9.5,14.4,21.4,24,20.2h326.5c11.6-1.2,18.9-9,22.1-19.7v-65.9c-3.4-8.9-15-9.7-19.2-1-2.3,19.7,1.6,42.1-.4,61.5-.3,2.7-.6,4.8-3.6,5.2l-327.7-.2-1.5-2.4-.5-118.6c.4-4.4,5.7-6.3,7.8-9.9,3.6-6.1,1.8-9.9-2.7-14.7l22-22.7c50.6,23.6,111.8,1.3,134.7-49.4,39.1-86.4-53.4-174.5-138.2-131.3l-23.6,16.2v-85.1c0-2.4,3.4-3.2,5.4-3.4,11.2-1.2,24.4.9,35.9,0v17.2c0,10,15.7,24.3,26.1,24.1ZM236.1,61.2h43.8c1.7,0,5.7-4.6,6.2-6.6,3.1-14-6.3-33.9,17.4-35.7,20.4-1.5,57.5-1.8,77.8,0,22.3,2,13.5,22.7,16.4,35.7.4,2,4.5,6.6,6.2,6.6h43.8v15.2c0,2.8-7.2,7.3-10.3,6.4h-189.8c-3.4,1.1-11.3-3.2-11.3-6.4v-15.2ZM95.8,410.1c-23.9,16.1-52.2-10.9-37.9-35.9l65.6-66.2,36.8,37.7-64.5,64.4ZM183,304.6c-1.1,1.7-16.2,16.9-17.4,17.1l-19-18.3,18.1-19c1.3,0,15.1,17.5,19.2,17.7.4,1.4-.4,1.6-1,2.5ZM238.8,142.1c103.4-8.2,120,147.7,17.3,160.8-110.1,14.1-125.2-152.3-17.3-160.8Z"/>
      <path class="st0" d="M403.7,61.2c-1.7,0-5.7-4.6-6.2-6.6-2.9-13.1,6-33.7-16.4-35.7-20.2-1.8-57.4-1.5-77.8,0-23.6,1.8-14.2,21.7-17.4,35.7-.5,2-4.5,6.6-6.2,6.6h-43.8v15.2c0,3.2,7.9,7.5,11.3,6.4h189.8c3.1.9,10.3-3.6,10.3-6.4v-15.2h-43.8ZM359.2,60.9c-7.5,1.1-27.4,1.1-34.9,0-11.8-1.7-14.2-13.9-4-19.2h42.8c10.5,5.5,8.1,17.5-4,19.2Z"/>
      <path class="st0" d="M183,304.6c-1.1,1.7-16.2,16.9-17.4,17.1l-19-18.3,18.1-19c1.3,0,15.1,17.5,19.2,17.7.4,1.4-.4,1.6-1,2.5Z"/>
      <path class="st0" d="M160.3,345.7l-64.5,64.4c-23.9,16.1-52.2-10.9-37.9-35.9l65.6-66.2,36.8,37.7Z"/>
      <path class="st0" d="M238.8,142.1c-108,8.6-92.8,174.9,17.3,160.8,102.7-13.1,86.1-169.1-17.3-160.8ZM291.1,207.2l-55,54.1c-3,.9-6.3.8-8.9-1.1-4.7-6.7-27.1-23.7-29.1-29.9-2.8-8.6,4.2-14.6,12.6-12.6,4.8,1.1,20.3,20.4,21.8,20.4l45.8-45.7c3.2-2.6,9.7-1.8,12.4.8,3.8,3.5,4.1,10.2.3,14Z"/>
      <path class="st0" d="M528.1,373.9v5.9c-7.5,14.6-26.8,1.9-17.2-9.8,5.1-6.2,14.3-2.6,17.2,3.9Z"/>
      <path class="st0" d="M262.4,346.6c9.5-1.1,19.5.5,16.7,12.8s-10.6,5.8-15.8,6.8c-13,2.5-24.7,14.7-26.2,27.9-3.8,33.8,38.3,51.4,59.3,23.9,4.7-6.1,6.9-17.1,17.7-11.6,12.5,6.4-2,25.3-8.8,31.3-35.8,32.2-92.5,3.2-87.8-44.6,2.2-22.9,21.9-43.8,44.9-46.6Z"/>
      <path class="st0" d="M361.6,365.2l93.1-.2c10.3,1.6,11.1,18-4.9,19.6-26,2.6-56.1-1.9-82.6,0-12.4,0-17.9-13.8-5.7-19.4Z"/>
      <path class="st0" d="M369.5,187.3l84.3-.2c11.4,2.6,11,16.4,0,19.5h-83.5c-10.9-1.7-11.7-17.4-.8-19.4Z"/>
      <path class="st0" d="M308.6,359.3c8.2-.8,12.8,7.8,9.1,15.1-1.9,3.8-33.4,35.3-37.7,38s-7.1,3.4-11.9.6c-1.8-1.1-15.4-14.6-16.2-16.2-4.5-8.7,2.9-18,12.2-14.2,3.9,1.6,5.6,6.4,9.6,7.9,2.2-.4,23.8-25,28.6-28.5s4.3-2.6,6.1-2.7Z"/>
      <path class="st0" d="M362.6,411.5l60.7-.2c11.2,3.3,11,16.1,0,19.6-18.3-1.8-42.2,2.7-59.9,0-10.8-1.7-11.3-16.8-.8-19.4Z"/>
      <path class="st0" d="M371.5,233.5c8.6-1.3,42.2-1.4,50.6,0,12.7,2.1,11.7,17.9,2.1,19.4-16.1,2.5-38.2-1.7-54.9,0-11.4-3.6-9.5-17.5,2.2-19.3Z"/>
    </g>
  </g>
</svg>