<?xml version="1.0" encoding="UTF-8"?>
<svg id="Layer_2" xmlns="http://www.w3.org/2000/svg" version="1.1" viewBox="0 0 562.6 502.8">
  <!-- Generator: Adobe Illustrator 29.0.0, SVG Export Plug-In . SVG Version: 2.1.0 Build 186)  -->
  <defs>
    <style>
      .st0 {
        fill: #fff;
      }
    </style>
  </defs>
  <g id="_x32_sDjxq">
    <g>
      <path class="st0" d="M28.6,414.3c12.2-17,23.6-34.7,36.6-51.2,21.3-27,40.8-52.5,76.8-57.9,31.7-4.8,65.6-3.9,97.7-7.6,29.8-3.4,59-11.9,88.7-15.2,20.4-2.3,39.8-3.8,35.4,24.2-6.1,38.9-68.1,46.1-97.9,55.8l12.3,3.8c30.7,3.9,62.8,6.3,92.7-3.4s88.9-58.1,124.2-49.2c15.6,3.9,25.7,17.2,13.7,31.3-27,31.4-111.5,81.1-151.4,92.9s-107.9,5-155.5,8.8c-29.5,2.3-63.5,34.5-83.5,54.8h-2.8l-87-85.6v-1.4h0Z"/>
      <g>
        <path class="st0" d="M534,15.6v11.2l-4.6,24.2c-11.2,56.3-69,127.9-126.2,140.6-5.2,1.2-29.4,6.1-28.7-2.6s9.8-20.4,11.8-24.1c16.7-30.4,39.5-57.1,63.4-81.9l-19.7,14.7c-17.2,16.2-33.3,33.3-47.5,52.2s-18.3,28.4-19.9,29.3-2.9,1.2-4.3,0c-7.7-23.7,1.1-53.2,12.5-74.7,29.1-54.8,78.4-80.8,138.7-88.7,60.3-7.9,17.1-3,24.4-.2h0Z"/>
        <path class="st0" d="M253.2,1.5c14.1,1.4,37.8,8.3,50.6,14.7,30.3,15.3,56.6,54.5,51.2,89.2l-4.2,1.4c-11.5-19-26.1-38-42.8-52.7-1.4-1.2-10.2-8.6-11.3-7.7,8.7,9.7,18.1,19,25.9,29.6,3.5,4.8,23.8,35.8,20.5,39.2-20.9,2.4-39.6-8.7-54.8-21.7-25.9-22.3-42.2-50.6-45.7-85-.3-2.6-1.2-4.5.8-7,3.2.2,6.6-.3,9.8,0h0Z"/>
        <path class="st0" d="M344.7,232.9c-20.5-36-48.9-66.6-81-92.4l-2.1.7c30.4,29.1,56.6,63.4,73,102.5-.9,4.4-20.5,2.4-24.2,1.8-41.5-7.3-90.6-56.8-108.8-93.4-8.3-16.8-20.5-52.9-20.1-71.3,0-2.9,1.4-5.9,4.7-5.9,6.5,0,17,1.8,23.8,2.9,51.4,7.8,92.6,28.3,121,72.7,15.3,23.9,25.1,53,19.9,81.4l-6.2,1.1h0Z"/>
      </g>
    </g>
  </g>
</svg>